<svg xmlns="http://www.w3.org/2000/svg" xmlns:xlink="http://www.w3.org/1999/xlink" width="362.029" height="324.061" viewBox="0 0 362.029 324.061">
  <defs>
    <clipPath id="clip-path">
      <rect id="Rechteck_7" data-name="Rechteck 7" width="362.029" height="324.061" fill="none"/>
    </clipPath>
  </defs>
  <g id="Gruppe_52" data-name="Gruppe 52" clip-path="url(#clip-path)">
    <g id="Gruppe_51" data-name="Gruppe 51">
      <g id="Gruppe_50" data-name="Gruppe 50" clip-path="url(#clip-path)">
        <g id="Gruppe_49" data-name="Gruppe 49" opacity="0.91">
          <g id="Gruppe_48" data-name="Gruppe 48">
            <g id="Gruppe_47" data-name="Gruppe 47" clip-path="url(#clip-path)">
              <g id="U">
                <path id="Pfad_94" data-name="Pfad 94" d="M144.376,49.629a5.561,5.561,0,0,1,.785-.454c.273.475-2.729,9.1-2.33,9.794.306.53,16.983-9.829,16.993-9.811.795,1.377-16.01,15.976-15.7,16.521.843,1.459,23.91-16.479,25.069-14.473.11.191-26.825,16.116-26.283,17.056.571.988,26-17.157,26.926-15.545,1.131,1.959-28.148,23.024-27.837,23.561.351.609,26.938-16.381,27.3-15.76,1.349,2.337-28.024,19.615-27.5,20.527s27.4-16.659,27.767-16.031c.64,1.107-25.465,19.158-24.106,21.512.916,1.587,22.328-14.954,23.222-13.407.371.641-25.267,15.738-24.73,16.67.97,1.68,27.857-16.315,27.957-16.14.622,1.075-29.8,21.83-28.252,24.514.883,1.528,23.208-15.407,24.079-13.9.608,1.055-21.875,18.919-21.47,19.62.485.839,20.46-14.681,21.7-12.53.213.372-21.671,19.45-21.412,19.9.392.681,20.227-14.523,21.459-12.389.254.44-26.055,21.588-25.879,21.893.332.575,26.8-15.474,26.8-15.474,1.24,2.145-28.663,20.968-27.172,23.55L173.165,110.7c1.231,2.133-30.685,18.358-29.751,19.975.155.268,26.809-17.625,27.738-16.014,1.237,2.141-27.119,19.292-26.17,20.938.635,1.1,22.2-15.38,23.312-13.459.239.415-26.571,19.092-25.2,21.466.221.383,27.254-16.977,27.79-16.045.9,1.563-28.815,23.617-27.937,25.137.573.993,24.295-15.8,25.064-14.472.117.2-26.564,18.709-26.294,19.177.712,1.233,27.526-15.945,27.549-15.906.463.8-25.558,22.09-25.515,22.163,1.065,1.846,27.5-17.4,28.16-16.259.293.508-27.777,20.774-27.514,21.23.448.774,23.065-16.079,24.261-14.007.679,1.175-23.6,14.823-22.483,16.751.619,1.072,22.53-14.962,23.376-13.5.6,1.039-28.046,23.3-28.046,23.3.3.525,27.465-18.48,28.6-16.513.289.5-29.1,18.753-29.1,18.753,1.155,2,27.306-15.872,27.353-15.792.655,1.136-27.5,16.124-26.26,18.28.125.217,29.221-19.428,30.329-17.51.013.023-30.476,18.546-30,19.379,1.009,1.746,26.583-18.437,27.921-16.12,1.183,2.049-29.653,21.116-29.162,21.967,1.205,2.087,30.382-19.878,31.394-18.126,1.516,2.626-32,23.634-32,23.634.889,1.541,27.289-17.234,27.929-16.125.187.325-36.787,25.964-35.375,28.408.526.913,32.194-21.076,33.27-19.21,1.155,2-38.768,23.326-37.419,25.661,1.207,2.092,35.423-22.513,36.315-20.967,1.543,2.671-40.127,25.205-40.127,25.205,1.249,2.162,42.758-26.063,43.354-25.031" transform="translate(7.815 0)" fill="none" stroke="#f7f7f7" stroke-linecap="round" stroke-linejoin="round" stroke-width="1.568"/>
                <path id="Pfad_95" data-name="Pfad 95" d="M20.567,51.072c.007.012,5.408-3.2,5.441-3.141,0,0-2.452,8.31-2.446,8.32.446.773,12.66-8,12.959-7.481.672,1.164-16.083,15.012-15.553,15.929,1,1.735,23.585-15.261,24.3-14.028,1.179,2.041-24.239,19.134-23.132,21.051.072.126,25.807-15.208,25.941-14.977.888,1.539-27.059,17.183-26.664,17.867.233.4,29.283-18.281,29.878-17.251,1.229,2.129-26.1,21.886-25.508,22.908.51.883,21.648-12.769,21.765-12.566,1.026,1.777-23.6,19.711-23.442,19.98.572.992,24.764-14.445,24.828-14.334.756,1.309-27.835,21.2-26.61,23.326C22.632,97.213,49.593,78,50.86,80.2c.232.4-28.161,22.909-28.161,22.909,1,1.739,25.845-14.934,25.85-14.925.806,1.4-23.964,15.723-23.179,17.083.475.823,24.832-14.514,24.909-14.381,1.31,2.268-28.111,24.107-28.111,24.107,1.155,2,23.892-15.852,24.782-14.309.642,1.112-25.648,19.129-24.373,21.337,1.11,1.923,25.139-15.969,25.769-14.878.189.327-23.211,18.116-23.1,18.314,1.263,2.187,23.949-14.951,24.436-14.108.828,1.436-28.831,19.61-27.905,21.214,1.239,2.145,26.294-17.923,27.481-15.866,0,0-25.494,18.508-24.588,20.078,0,0,23.039-15.451,23.969-13.839.141.243-27.419,19.176-27.306,19.372.818,1.416,26.539-18.2,27.784-16.041,1.078,1.867-28.811,19.34-27.444,21.709,1.183,2.049,26.682-15.491,26.72-15.426.594,1.03-28.183,24.563-27.964,24.943.622,1.077,26.155-17.74,27.3-15.76s-27.193,17.046-26.954,17.461c.164.284,29.949-19.2,30.774-17.767,1.106,1.916-26.215,20.483-26.215,20.483.836,1.449,24.958-15.345,25.363-14.643.645,1.117-28.331,19.862-27.432,21.42.79,1.368,23.941-15.219,24.546-14.172.723,1.254-23.983,15.272-22.772,17.37.366.633,21.886-14.965,22.9-13.218.081.141-24.729,16.879-24.719,16.9,1.132,1.961,25.6-15.927,26.1-15.069,1.214,2.1-25.058,18.358-24.5,19.321,1.065,1.845,24.491-15.581,25.115-14.5.663,1.149-27.171,18.774-26.117,20.6.048.083,22.506-14.3,23.073-13.321.429.743-24.533,18.449-23.224,20.716.081.141,27.659-16.012,27.678-15.979.159.277-27.918,19.2-27.8,19.406.745,1.29,27.238-16.659,27.642-15.959l-24.42,19.315c.224.387,26.071-15.053,26.071-15.053,1.129,1.955-23.181,17.977-22.452,19.24.447.773,17.951-12.093,18.7-10.8.984,1.705-19.825,13.61-19.239,14.625.888,1.539,24.317-14.564,24.545-14.171.9,1.554-21.734,20.022-21.488,20.447.186.323,19.309-12.083,19.714-11.382.053.091-18.051,15.117-18,15.2.967,1.676,19.191-11.3,19.287-11.135.277.479-19.994,18.271-19.938,18.367.736,1.275,25.018-14.706,25.132-14.51.412.714-19.411,18.02-19.291,18.228.479.83,22.6-13.445,22.769-13.146.447.775-20.15,14.017-19.506,15.132,1.006,1.743,21.72-12.922,21.886-12.635.815,1.412-22.869,14.3-21.78,16.189.544.941,22.864-14.848,23.577-13.612.469.812-19.064,14.467-18.509,15.428.058.1,23.6-14.071,23.79-13.735,0,0-21.243,16.929-21.119,17.143.294.509,22.62-13.06,22.62-13.06.768,1.33-14.68,15.927-14.68,15.927.4.7,23.729-14.589,24.114-13.922.4.691-22.592,15.451-21.863,16.713,1.2,2.088,25.27-16.388,26.049-15.039,0,0-25.716,17.389-25.369,17.99.049.085,28.5-17.46,28.932-16.7.1.167-20.892,17.611-20.515,18.263.092.161,33.1-22.406,34.526-19.933,1.187,2.056-24.08,17.585-22.985,19.481,2.881,4.991,83.474-49.018,83.831-48.4,2.777,4.809-74.294,46.56-72.417,49.811.383.662,68.992-43.1,70.4-40.649.14.243-59.054,37.967-57.242,41.107.3.521,47.479-29.347,48.317-27.9.808,1.4-41.118,24.592-40.016,26.5.727,1.259,37.983-21.93,37.983-21.93.73,1.264-27.122,16.813-25.884,18.957.112.195,13.8-8.732,14.133-8.16" transform="translate(7.815 0)" fill="none" stroke="#f7f7f7" stroke-linecap="round" stroke-linejoin="round" stroke-width="1.568"/>
                <path id="Pfad_98" data-name="Pfad 98" d="M23.035,49.146V166.928c0,62.006,30.854,85.443,71.8,85.443,43.315,0,75.653-25.218,75.653-86.63V49.146H144.376V167.521c0,44.205-18.987,63.786-48.655,63.786-26.7,0-46.579-18.988-46.579-63.786V49.146Z" transform="translate(7.815 0)" fill="none" stroke="#f9f9f9" stroke-width="1.568"/>
              </g>
              <g id="V">
                <path id="Pfad_96" data-name="Pfad 96" d="M333.16,49.571s-.018-.064.015-.008c.348.6-5.965,10.716-5.456,11.6.382.661,20.785-12.031,20.8-12.008,1.068,1.85-23.107,19.823-22.684,20.555,1.109,1.921,31.788-21.873,33.313-19.233.147.255-36.053,21.027-35.33,22.28.75,1.3,33.9-22.4,35.125-20.28,1.535,2.659-39.652,29.412-39.231,30.141.459.8,34.849-21.2,35.318-20.391,1.8,3.119-38.206,25.086-37.5,26.3s35.2-21.417,35.678-20.6c.889,1.541-37.149,24.671-35.256,27.949C319.136,97.937,347.74,76,348.9,78.009c.5.859-34.2,20.476-33.479,21.723,1.255,2.174,35.5-20.8,35.629-20.57.832,1.441-41.5,27.367-39.424,30.965,1.135,1.966,30.436-20.157,31.555-18.218.86,1.489-32.6,24.726-32.028,25.716.62,1.074,27.417-19.5,29.007-16.747.3.522-32.293,25.341-31.931,25.969.5.866,27.017-19.22,28.585-16.5.341.59-36.206,27.311-35.97,27.72.421.728,33.762-19.492,33.762-19.492,1.643,2.845-39.464,26.079-37.486,29.5l38.167-22.036c1.547,2.679-38.884,22.54-37.712,24.571.2.337,33.27-21.908,34.439-19.883,1.623,2.812-36.574,24.065-35.327,26.225.793,1.374,28.455-19.632,29.842-17.229.317.549-36.418,23.752-34.6,26.895.275.476,33.413-20.833,34.08-19.676,1.174,2.032-39.011,28.9-37.87,30.871.7,1.218,30-19.5,30.94-17.863.148.256-34.082,22.886-33.742,23.476.867,1.5,33.17-19.214,33.2-19.167.594,1.03-34.054,26.967-34,27.061,1.276,2.21,32.508-20.591,33.3-19.224.361.626-34.913,24.752-34.589,25.314.528.914,27.519-19.144,28.929-16.7.843,1.46-29.788,17.774-28.4,20.17.719,1.246,26.617-17.637,27.6-15.934.716,1.239-34.191,26.843-34.191,26.843.337.583,30.285-20.4,31.546-18.213.321.557-32.463,20.692-32.463,20.692,1.263,2.188,29.788-17.315,29.838-17.228.728,1.26-30.667,17.639-29.287,20.029.133.231,30.818-20.506,31.993-18.471.014.024-32.439,19.61-31.928,20.5,1.047,1.813,27.594-19.14,28.983-16.734,1.16,2.009-30.286,18.987-29.8,19.82,1.194,2.069,30.136-19.714,31.138-17.977" fill="none" stroke="#f7f7f7" stroke-linecap="round" stroke-linejoin="round" stroke-width="1.568"/>
                <path id="Pfad_97" data-name="Pfad 97" d="M193.069,51c.006.01,5.289-3.116,5.316-3.069,0,0-.428,7.144-.423,7.153.375.649,10.677-6.743,10.927-6.309.542.937-12.039,12.916-11.613,13.655.843,1.459,19.751-12.787,20.35-11.749.922,1.6-17.938,16.05-17.072,17.551.066.113,23.144-13.638,23.264-13.431.781,1.354-23.654,15.327-23.307,15.929.209.361,26.649-16.618,27.182-15.694,1.03,1.784-21.06,19.2-20.566,20.054.456.79,18.906-11.157,19.011-10.976.856,1.482-19.047,17.144-18.917,17.368.511.885,21.969-12.816,22.026-12.717.636,1.1-22.651,18.661-21.621,20.446.277.479,24.553-16.779,25.68-14.826.2.343-23.476,20.2-23.476,20.2.892,1.545,22.939-13.255,22.943-13.247.681,1.179-19.918,13.67-19.255,14.818.422.73,21.907-12.805,21.976-12.687,1.1,1.915-23.015,21.164-23.015,21.164,1.022,1.771,21-13.948,21.792-12.582.531.919-20.441,16.633-19.388,18.458.981,1.7,22.17-14.085,22.726-13.121.157.271-18.781,15.6-18.686,15.768,1.113,1.928,20.927-13.074,21.357-12.331.707,1.226-24.215,17.258-23.424,18.627,1.09,1.889,23.32-15.878,24.365-14.067,0,0-20.61,16.043-19.857,17.347,0,0,19.994-13.433,20.811-12.016.121.209-23.254,16.808-23.157,16.977.717,1.243,23.507-16.1,24.6-14.2.91,1.575-23.8,16.942-22.648,18.941,1.036,1.795,23.46-13.62,23.493-13.564.493.856-22.5,21.37-22.321,21.686.543.941,23.009-15.591,24.008-13.861.988,1.71-23.349,14.9-23.142,15.26.143.248,26.75-17.107,27.47-15.86.925,1.6-21.443,17.728-21.443,17.728.729,1.263,21.668-13.325,22.021-12.713.542.938-23.327,17.3-22.571,18.613.688,1.191,20.651-13.139,21.178-12.227.6,1.031-19.329,13.081-18.333,14.807.319.552,18.705-12.831,19.585-11.307.069.12-20.8,14.615-20.793,14.63.99,1.716,22.443-13.959,22.877-13.208,1.023,1.772-20.654,16.017-20.186,16.828.943,1.633,21.631-13.763,22.183-12.807.574.995-23.1,16.754-22.191,18.335.043.074,20.066-12.765,20.577-11.881.374.648-20.855,16.71-19.712,18.689.075.129,25.729-14.895,25.747-14.865.147.256-25.623,17.893-25.511,18.086.692,1.2,25.568-15.63,25.944-14.979l-22.331,18.109c.211.365,24.717-14.271,24.717-14.271C263.3,165.5,240.659,180.814,241.344,182c.428.74,16.995-11.469,17.713-10.226.938,1.625-18.817,13.091-18.259,14.059.857,1.484,23.51-14.08,23.729-13.7.883,1.529-21.32,19.791-21.078,20.21.182.315,18.814-11.777,19.21-11.091.053.091-18.051,15.117-18,15.2.95,1.646,18.8-11.071,18.892-10.907.285.493-20.692,18.671-20.635,18.77.724,1.253,24.653-14.491,24.764-14.3.434.752-20.674,18.734-20.547,18.953.467.811,22.07-13.131,22.239-12.839.459.795-20.751,14.323-20.09,15.469.973,1.685,20.992-12.49,21.152-12.212.832,1.44-23.365,14.537-22.253,16.462.519.9,21.888-14.21,22.569-13.03.487.843-19.9,14.9-19.326,15.9.053.093,22.079-13.164,22.26-12.852,0,0-21.951,17.329-21.824,17.55.265.458,20.307-11.724,20.307-11.724.836,1.448-16.422,16.933-16.422,16.933.335.579,19.6-12.05,19.914-11.5.373.645-20.974,14.626-20.293,15.806.938,1.623,19.687-12.764,20.292-11.716,0,0-22.3,15.515-21.993,16.041.086.148,48.194-29.569,48.949-28.261.2.343-46.556,31.515-45.783,32.852.123.214,43.282-29.382,45.185-26.087,1.94,3.36-41.491,26.033-39.7,29.132,1.268,2.2,35.081-20.617,35.238-20.345,1.116,1.933-27.279,22.009-26.525,23.315.137.236,23.911-14.97,24.416-14.1.038.066-12.613,14.192-12.116,15.053.047.081,5.554-3.51,5.685-3.283.053.091-.005,3,.067,3.125a7.845,7.845,0,0,0,.81-.468" fill="none" stroke="#f7f7f7" stroke-linecap="round" stroke-linejoin="round" stroke-width="1.568"/>
                <path id="Pfad_99" data-name="Pfad 99" d="M289.152,249.107l71.5-199.961H333.061L299.239,147.94c-8.9,26.107-17.207,51.325-22.844,74.466H275.8c-5.339-23.438-12.756-47.766-21.36-74.763l-31.151-98.5H195.4l65.269,199.961Z" fill="none" stroke="#f9f9f9" stroke-width="1.568"/>
              </g>
            </g>
          </g>
        </g>
      </g>
    </g>
  </g>
</svg>
