<?xml version="1.0" standalone="no"?>
<!DOCTYPE svg PUBLIC "-//W3C//DTD SVG 20010904//EN"
 "http://www.w3.org/TR/2001/REC-SVG-20010904/DTD/svg10.dtd">
<svg version="1.0" xmlns="http://www.w3.org/2000/svg"
 width="512.000000pt" height="512.000000pt" viewBox="0 0 512.000000 512.000000"
 preserveAspectRatio="xMidYMid meet">
<metadata>
Created by potrace 1.14, written by Peter Selinger 2001-2017
</metadata>
<g transform="translate(0.000000,512.000000) scale(0.100000,-0.100000)"
fill="#000000" stroke="none">
<path d="M4069 4576 c-2 -2 -19 -7 -36 -10 -18 -3 -48 -9 -65 -12 -18 -3 -38
-7 -45 -8 -7 -1 -16 -5 -19 -9 -4 -4 -20 -7 -35 -7 -15 0 -30 -6 -32 -12 -4
-10 -6 -10 -6 -1 -1 9 -11 8 -43 -3 -22 -8 -43 -12 -46 -9 -3 3 -11 0 -19 -6
-7 -6 -13 -9 -13 -7 0 3 -26 -1 -57 -9 -32 -7 -69 -16 -83 -18 -37 -7 -65 -13
-65 -15 0 -1 -9 -3 -20 -4 -30 -4 -138 -27 -155 -34 -23 -8 -42 -12 -80 -18
-19 -2 -44 -7 -55 -11 -11 -3 -29 -7 -40 -9 -11 -2 -92 -19 -180 -39 -88 -20
-169 -38 -180 -40 -11 -2 -22 -5 -25 -6 -3 -1 -9 -3 -15 -4 -5 -1 -23 -4 -40
-8 -16 -4 -41 -10 -55 -13 -30 -6 -57 -12 -87 -19 -13 -3 -33 -7 -45 -10 -145
-31 -169 -38 -165 -49 4 -10 18 -73 32 -146 2 -8 4 -16 5 -17 2 -2 4 -12 5
-23 1 -11 4 -21 5 -22 1 -2 4 -12 5 -23 2 -11 10 -51 20 -90 10 -38 18 -81 19
-95 1 -14 5 -30 8 -35 3 -6 11 -35 17 -65 14 -70 20 -94 27 -122 3 -13 7 -34
10 -48 5 -23 20 -90 30 -135 3 -11 7 -29 9 -40 2 -11 6 -31 9 -45 3 -14 8 -36
11 -50 13 -60 15 -71 21 -92 3 -13 7 -32 9 -43 7 -28 35 -156 40 -180 3 -11 9
-42 15 -70 13 -64 16 -77 34 -150 8 -33 17 -77 20 -99 4 -21 9 -42 12 -47 3
-6 8 -26 10 -46 3 -20 7 -39 9 -43 5 -8 74 4 250 44 61 14 121 27 135 30 14 3
57 13 95 21 39 9 79 18 90 20 11 2 20 4 20 5 0 3 42 10 72 13 18 1 33 5 33 8
0 3 6 6 13 6 6 0 24 3 40 7 15 3 39 8 55 11 15 3 35 8 44 11 10 3 30 8 45 11
16 3 33 6 38 7 6 2 28 6 50 11 22 4 44 10 49 13 5 3 23 7 40 9 35 4 49 7 86
16 14 4 36 9 50 11 14 2 32 7 40 10 14 5 39 11 95 21 58 11 84 17 120 27 22 6
47 12 55 13 8 1 31 6 50 10 19 5 43 10 53 11 9 1 19 3 22 4 6 3 9 4 60 14 49
10 55 18 43 65 -5 20 -11 45 -13 56 -2 11 -11 52 -20 90 -9 39 -18 79 -20 90
-3 11 -14 61 -25 110 -11 50 -23 103 -25 119 -2 16 -10 44 -16 63 -6 19 -8 37
-5 40 3 4 2 11 -3 17 -5 6 -11 27 -14 46 -3 19 -7 42 -10 50 -4 8 -8 29 -11
45 -3 17 -13 62 -21 100 -9 39 -19 81 -21 95 -3 14 -9 41 -14 60 -7 28 -25
112 -44 205 -1 6 -5 19 -9 30 -3 11 -8 36 -11 56 -3 20 -9 47 -14 60 -5 13 -7
30 -5 37 3 6 1 12 -4 12 -4 0 -9 12 -9 28 -1 15 -5 38 -9 52 -4 14 -8 34 -10
45 -1 11 -5 27 -8 35 -4 8 -8 29 -11 45 -2 17 -5 30 -6 30 -1 0 -3 11 -6 25
-7 42 -13 50 -32 50 -10 0 -21 -2 -23 -4z"/>
<path d="M2369 3326 c-2 -3 -16 -7 -29 -10 -38 -7 -172 -37 -195 -43 -11 -3
-30 -5 -42 -6 -13 -1 -23 -4 -23 -7 0 -3 -10 -6 -22 -7 -25 0 -65 -8 -88 -17
-8 -3 -27 -8 -42 -11 -16 -3 -38 -7 -50 -10 -13 -3 -32 -7 -43 -9 -11 -2 -41
-9 -68 -15 -26 -6 -64 -14 -85 -17 -20 -3 -40 -8 -44 -11 -8 -4 -35 -10 -83
-18 -16 -2 -67 -13 -112 -24 -46 -10 -83 -17 -83 -14 0 3 -6 1 -12 -4 -7 -6
-42 -16 -78 -23 -36 -6 -74 -14 -85 -17 -54 -12 -80 -17 -180 -38 -44 -10 -87
-19 -95 -22 -8 -3 -24 -7 -35 -9 -11 -1 -51 -10 -90 -19 -38 -9 -81 -19 -95
-21 -14 -3 -31 -7 -39 -10 -8 -2 -30 -7 -50 -10 -20 -3 -49 -9 -66 -14 -34
-11 -78 -20 -115 -25 -14 -2 -25 -4 -25 -5 0 -2 -9 -4 -20 -5 -11 -1 -47 -10
-79 -18 -33 -9 -63 -14 -68 -11 -4 3 -8 1 -8 -4 0 -6 -13 -9 -30 -8 -16 1 -30
-2 -30 -8 0 -5 -2 -7 -6 -4 -3 3 -25 0 -50 -8 -24 -7 -44 -10 -44 -7 0 3 -7 0
-15 -7 -8 -7 -12 -17 -8 -23 6 -9 10 -28 28 -115 2 -12 7 -33 10 -47 3 -14 7
-35 9 -47 2 -13 9 -41 15 -63 6 -22 12 -51 15 -65 2 -14 5 -26 5 -26 1 -1 38
7 84 17 109 26 139 32 160 33 9 0 17 3 17 7 0 4 8 6 18 4 9 -1 22 0 27 4 6 3
12 6 15 6 3 1 19 4 35 8 17 4 44 9 60 12 35 5 70 13 70 15 0 2 27 9 65 15 19
3 49 10 65 15 17 5 50 12 75 16 52 9 59 11 63 14 1 1 13 4 27 5 14 1 32 5 40
8 15 5 89 22 140 31 23 5 157 35 244 55 22 6 44 8 48 5 4 -3 8 -1 8 4 0 5 6 9
13 9 11 0 110 21 147 31 8 2 25 4 38 5 12 0 22 4 22 8 0 4 8 6 18 5 9 -2 45 5
80 15 34 10 65 18 67 18 3 1 6 1 8 2 1 0 13 2 27 4 14 2 57 11 95 20 39 9 79
18 90 20 56 13 72 16 90 20 11 2 34 7 50 10 17 4 37 8 45 10 8 2 15 4 15 5 0
1 9 3 20 5 24 3 70 12 105 21 14 3 48 10 75 15 82 16 104 28 98 52 -2 12 -6
31 -9 42 -2 11 -10 49 -18 85 -8 35 -13 68 -10 71 2 4 0 9 -5 11 -6 1 -12 19
-15 38 -2 19 -7 46 -11 60 -4 14 -7 31 -7 38 -1 11 -29 17 -39 8z"/>
<path d="M4895 2759 c-16 -5 -41 -10 -55 -13 -14 -2 -47 -9 -75 -16 -27 -7
-63 -14 -80 -17 -42 -7 -60 -11 -60 -13 0 -2 -38 -11 -65 -15 -14 -1 -26 -4
-27 -5 -4 -4 -14 -6 -65 -14 -27 -5 -48 -11 -48 -15 0 -3 -10 -7 -22 -7 -33
-2 -80 -11 -194 -37 -56 -13 -109 -22 -118 -21 -9 1 -16 -1 -16 -6 0 -4 -21
-11 -47 -15 -27 -5 -52 -9 -58 -11 -5 -1 -21 -5 -35 -8 -14 -3 -45 -10 -69
-16 -24 -6 -46 -8 -49 -5 -3 2 -10 1 -16 -4 -6 -5 -24 -12 -41 -14 -16 -3 -41
-8 -55 -12 -14 -3 -36 -8 -50 -10 -14 -2 -63 -13 -110 -24 -47 -11 -96 -22
-110 -25 -14 -3 -36 -8 -50 -11 -14 -3 -36 -8 -50 -11 -28 -6 -105 -23 -135
-31 -11 -2 -29 -6 -40 -8 -11 -2 -31 -6 -45 -9 -14 -3 -35 -8 -48 -10 -13 -3
-31 -7 -40 -10 -9 -3 -28 -7 -42 -10 -35 -7 -70 -14 -105 -23 -16 -4 -32 -7
-35 -8 -3 -1 -25 -5 -50 -10 -52 -10 -58 -12 -65 -15 -3 -1 -14 -4 -25 -5 -11
-1 -21 -3 -22 -5 -4 -2 -22 -6 -67 -15 -56 -10 -54 0 -30 -115 6 -30 15 -60
20 -66 5 -6 7 -13 4 -16 -6 -5 18 -118 36 -176 8 -23 14 -30 22 -24 10 8 130
34 154 34 5 0 15 4 23 8 8 4 31 11 50 14 19 3 118 24 220 46 102 23 194 43
205 46 11 2 31 6 45 9 35 8 62 14 85 19 11 2 63 14 115 26 52 12 104 24 115
26 55 11 73 14 105 20 19 4 40 9 45 13 6 3 19 6 30 7 11 1 27 4 35 7 8 3 33 8
55 12 22 4 44 9 49 12 5 4 23 7 40 9 17 2 42 6 56 10 14 3 34 7 45 9 11 2 20
4 20 5 0 2 9 4 20 5 11 2 58 12 104 24 46 11 88 18 93 15 4 -3 8 0 8 6 0 6 3
9 8 6 4 -2 32 2 62 10 30 8 69 16 85 19 17 2 68 14 115 25 47 11 101 23 120
26 19 3 38 8 41 10 4 2 24 6 45 10 22 3 44 10 50 15 6 5 13 6 16 3 3 -3 25 0
48 6 47 13 46 0 10 160 -11 52 -23 106 -26 120 -2 14 -10 46 -17 71 -12 44
-13 45 -42 38z"/>
<path d="M2240 2663 c-30 -7 -66 -15 -80 -18 -14 -3 -36 -7 -50 -11 -14 -3
-36 -7 -50 -8 -14 -1 -30 -5 -35 -8 -9 -5 -29 -10 -90 -22 -11 -3 -72 -16
-135 -31 -63 -14 -126 -28 -140 -30 -14 -2 -36 -6 -50 -10 -14 -3 -53 -11 -87
-18 -35 -6 -63 -14 -63 -18 0 -3 -11 -5 -25 -4 -14 2 -25 -1 -25 -6 0 -6 -3
-8 -7 -6 -5 3 -46 -4 -93 -15 -47 -10 -96 -21 -110 -23 -14 -1 -25 -4 -25 -5
0 -2 -9 -4 -20 -6 -19 -3 -137 -29 -178 -40 -37 -9 -63 -14 -94 -18 -18 -3
-36 -7 -41 -10 -5 -3 -24 -8 -43 -11 -19 -3 -41 -8 -49 -10 -22 -6 -67 -15
-133 -27 l-58 -11 6 -41 c4 -23 8 -50 10 -61 1 -11 3 -20 4 -20 3 0 7 -18 14
-62 3 -17 7 -35 10 -40 3 -4 8 -26 11 -48 4 -22 9 -49 13 -60 4 -11 8 -31 9
-45 1 -14 2 -25 3 -25 3 0 3 0 22 -95 7 -36 16 -67 19 -70 3 -3 6 -15 6 -27 1
-12 11 -61 22 -110 12 -48 24 -100 27 -115 10 -53 16 -83 35 -163 10 -45 21
-93 24 -108 9 -42 36 -167 52 -237 4 -14 7 -32 8 -40 3 -18 16 -70 23 -90 3
-8 7 -28 9 -45 2 -16 6 -39 9 -50 19 -75 37 -163 37 -177 -1 -16 23 -32 36
-24 4 2 25 7 47 11 22 4 45 8 50 9 6 1 37 8 70 15 33 7 67 15 75 18 8 3 24 7
35 9 28 4 59 11 136 28 36 8 78 18 93 21 30 6 62 13 91 19 11 3 53 12 94 21
41 9 78 18 82 20 3 3 24 7 45 11 21 3 67 13 103 21 36 8 74 15 84 14 9 0 17 4
17 8 0 4 10 7 23 8 19 0 128 23 192 40 11 2 27 6 35 7 8 2 49 10 91 20 42 10
84 19 95 21 10 2 19 4 19 5 0 1 11 4 25 5 14 2 55 11 91 19 36 8 78 17 92 20
49 9 48 6 20 121 -2 11 -6 29 -7 40 -2 11 -5 21 -6 23 -4 3 -5 12 -14 70 -4
28 -11 52 -14 52 -4 0 -8 12 -8 28 -1 15 -5 41 -9 57 -4 17 -8 37 -9 45 -1 8
-5 22 -8 30 -6 14 -12 42 -25 115 -7 41 -11 59 -14 65 -1 3 -3 10 -4 15 -5 29
-28 132 -33 145 -3 8 -6 24 -8 35 -3 23 -11 59 -18 83 -3 9 -8 33 -11 52 -3
19 -11 55 -17 80 -6 25 -12 54 -13 65 -2 11 -4 22 -5 25 -1 3 -2 9 -1 13 1 4
-3 16 -8 25 -5 9 -12 35 -15 57 -4 22 -8 47 -11 55 -2 8 -7 26 -9 40 -3 14
-13 54 -21 90 -9 36 -16 72 -16 80 -1 8 -3 22 -6 30 -3 8 -7 22 -8 30 -1 8 -6
29 -10 45 -4 17 -12 56 -17 87 -6 31 -16 59 -22 61 -6 2 -36 -2 -66 -10z"/>
</g>
</svg>
